<svg xmlns="http://www.w3.org/2000/svg" width="408" height="408" viewBox="0 0 408 408" version="1.1">
	<path d="M 118.727 81.293 C 117.439 83.260, 117.422 83.857, 118.612 85.485 C 119.376 86.528, 120 88.834, 120 90.608 C 120 92.382, 120.410 93.983, 120.911 94.167 C 121.412 94.350, 121.958 96.300, 122.124 98.500 C 122.291 100.700, 122.851 102.795, 123.368 103.154 C 123.885 103.514, 124.670 106.214, 125.112 109.154 C 125.554 112.095, 126.680 118.775, 127.615 124 C 129.539 134.759, 130.562 151, 129.315 151 C 128.860 151, 127.961 152.238, 127.317 153.750 C 124.018 161.495, 123 164.412, 123 166.122 C 123 167.155, 122.550 168, 122 168 C 121.450 168, 121 168.676, 121 169.502 C 121 171.980, 114.743 182.915, 111.081 186.838 C 109.201 188.852, 107.805 190.500, 107.978 190.500 C 108.152 190.500, 107.972 191.512, 107.579 192.750 C 107.187 193.988, 106.251 195, 105.500 195 C 104.749 195, 103.881 195.787, 103.570 196.750 C 103.259 197.713, 101.694 199.896, 100.091 201.602 C 96.252 205.686, 94.588 211.445, 96.650 213.507 C 97.578 214.435, 97.707 215, 96.992 215 C 95.163 215, 96.893 220.971, 100.034 225.500 C 105.499 233.381, 112.728 239, 117.401 239 C 118.281 239, 119 239.450, 119 240 C 119 240.550, 120.093 241, 121.429 241 C 122.764 241, 124.452 241.563, 125.179 242.250 C 125.905 242.938, 128.074 243.656, 129.997 243.847 C 131.921 244.038, 134.373 244.665, 135.448 245.240 C 136.522 245.815, 138.998 246.390, 140.950 246.519 C 142.903 246.648, 145.850 247.044, 147.500 247.400 C 153.825 248.762, 166 249.860, 166 249.068 C 165.999 248.506, 167.274 248.532, 180.111 249.363 C 183.747 249.598, 187.268 249.453, 187.935 249.040 C 189.541 248.048, 188.918 241.416, 187.250 241.750 C 186.563 241.888, 186 241.617, 186 241.148 C 186 240.679, 182.287 240.490, 177.750 240.728 C 163.043 241.498, 152.453 241.016, 149.942 239.464 C 149.518 239.202, 148.943 239.553, 148.664 240.244 C 148.262 241.242, 148.142 241.243, 148.079 240.250 C 148.033 239.516, 146.625 239, 144.667 239 C 142.833 239, 141.035 238.702, 140.671 238.337 C 140.306 237.973, 138.544 237.521, 136.754 237.334 C 134.964 237.147, 129.717 236.069, 125.094 234.940 C 118.267 233.273, 116.511 233.133, 115.750 234.194 C 115.064 235.149, 114.963 235.029, 115.374 233.750 C 115.726 232.657, 115.419 232, 114.557 232 C 112.386 232, 101.223 219.206, 99.902 215.204 C 99.014 212.512, 99.002 211.499, 99.856 211.215 C 100.485 211.005, 101 209.772, 101 208.476 C 101 207.179, 101.450 205.840, 102 205.500 C 102.550 205.160, 103 204.201, 103 203.370 C 103 202.538, 103.656 201.201, 104.458 200.400 C 105.259 199.598, 105.646 198.241, 105.317 197.383 C 104.861 196.197, 105.281 195.905, 107.071 196.162 C 108.798 196.410, 110.565 195.307, 113.712 192.017 C 116.070 189.552, 118 186.965, 118 186.267 C 118 185.570, 118.378 185, 118.839 185 C 119.301 185, 120.538 183.205, 121.589 181.011 C 122.640 178.818, 123.838 177.018, 124.250 177.011 C 124.662 177.005, 125 176.132, 125 175.071 C 125 174.011, 125.616 172.527, 126.368 171.775 C 127.121 171.022, 128.071 169.303, 128.481 167.953 C 128.890 166.604, 130.571 162.575, 132.217 159 C 134.969 153.021, 135.207 151.618, 135.193 141.500 C 135.182 133.110, 134.724 129.314, 133.267 125.500 C 132.216 122.750, 131.552 119.617, 131.792 118.537 C 132.177 116.806, 129.687 104.036, 128.177 100 C 127.868 99.175, 127.140 94.900, 126.558 90.500 C 125.797 84.745, 125.125 82.578, 124.164 82.779 C 123.429 82.932, 122.589 82.144, 122.297 81.029 C 121.607 78.388, 120.581 78.464, 118.727 81.293 M 366.268 116.919 C 366.727 118.671, 366.530 118.819, 364.902 117.947 C 363.430 117.160, 363 117.265, 363 118.414 C 363 119.348, 360.870 120.555, 357.250 121.672 C 354.087 122.647, 351.275 123.705, 351 124.021 C 350.341 124.781, 341.724 127.419, 340.715 127.170 C 340.283 127.064, 335.558 127.850, 330.215 128.919 C 319.848 130.991, 312.442 131.837, 299.286 132.453 C 294.769 132.664, 290.719 133.048, 290.286 133.304 C 288.909 134.123, 268.637 133.123, 265.078 132.062 C 262.860 131.400, 261.244 131.382, 260.486 132.012 C 259.842 132.546, 259.132 132.803, 258.908 132.583 C 258.562 132.245, 249.650 130.935, 246.500 130.760 C 245.950 130.730, 243.199 131.030, 240.386 131.428 C 236.205 132.018, 235.161 131.863, 234.667 130.575 C 234.335 129.709, 233.347 129, 232.472 129 C 231.538 129, 231.172 129.469, 231.586 130.138 C 232.085 130.947, 231.304 131.092, 228.885 130.638 C 226.161 130.127, 225.238 130.390, 224.261 131.953 C 223.430 133.285, 223.375 134.113, 224.089 134.555 C 224.665 134.911, 224.938 135.719, 224.695 136.351 C 224.194 137.657, 225.139 137.768, 240.500 138.194 C 246.550 138.362, 251.950 138.754, 252.500 139.065 C 253.050 139.376, 256.762 139.601, 260.750 139.565 C 264.738 139.529, 268 139.790, 268 140.145 C 268 140.499, 269.572 140.435, 271.493 140.002 C 273.508 139.547, 274.752 139.592, 274.434 140.107 C 273.696 141.301, 280.508 141.431, 295 140.498 C 296.375 140.409, 298.625 140.037, 300 139.669 C 301.375 139.302, 307.234 138.816, 313.020 138.590 C 324.242 138.150, 330.271 137.385, 333.500 135.994 C 335.226 135.251, 342.956 134.052, 349.500 133.513 C 350.600 133.422, 352.775 132.816, 354.334 132.167 C 355.893 131.517, 357.580 131.240, 358.084 131.552 C 358.588 131.863, 359 131.672, 359 131.126 C 359 130.581, 359.946 129.834, 361.103 129.467 C 364.167 128.495, 370.150 124.283, 372.785 121.243 C 376.131 117.384, 375.325 115.560, 370.108 115.186 C 366.125 114.900, 365.781 115.055, 366.268 116.919 M 56.228 117.886 C 52.902 119.106, 51.545 119.197, 50.102 118.296 C 48.651 117.389, 47.787 117.461, 46.124 118.626 C 44.956 119.444, 44 119.808, 44 119.434 C 44 119.061, 43.396 119.256, 42.658 119.869 C 41.920 120.481, 41.019 120.686, 40.656 120.323 C 39.721 119.387, 35 122.090, 35 123.562 C 35 124.235, 35.712 125.059, 36.582 125.393 C 39.100 126.359, 49.187 126.097, 53.007 124.965 C 61.551 122.434, 88.264 122.330, 91.292 124.817 C 91.956 125.363, 93.971 125.961, 95.769 126.146 C 98.544 126.432, 99.271 126.032, 100.586 123.497 C 102.077 120.622, 102.036 120.428, 99.460 118.212 C 96.915 116.023, 96.719 115.998, 95.424 117.706 C 94.676 118.693, 94.049 119.050, 94.032 118.500 C 93.997 117.391, 94.166 117.406, 74.500 116.771 C 63.414 116.413, 59.611 116.646, 56.228 117.886 M 255.833 276.941 C 251.113 279.264, 246.815 282.339, 243.108 286.046 C 241.364 287.790, 239.098 289, 237.577 289 C 236.160 289, 235 289.450, 235 290 C 235 290.550, 234.325 291, 233.500 291 C 232.675 291, 232 291.498, 232 292.107 C 232 292.716, 231.380 292.976, 230.622 292.685 C 229.864 292.394, 228.743 292.657, 228.132 293.268 C 226.912 294.488, 225.180 294.961, 220.224 295.428 C 218.423 295.597, 216.173 296.379, 215.224 297.166 C 213.496 298.598, 207.252 298.892, 205.221 297.636 C 204.625 297.268, 203.893 297.364, 203.593 297.849 C 202.677 299.331, 185.186 297.469, 182.099 295.561 C 180.566 294.614, 175 293.992, 175 294.768 C 175 295.618, 168.404 296.316, 161 296.250 C 147.095 296.126, 130.359 295.344, 129.440 294.774 C 127.672 293.678, 104.744 294.734, 101 296.084 C 92.333 299.211, 89.371 302.332, 92.030 305.536 C 93.060 306.778, 93.588 306.718, 95.862 305.101 C 97.313 304.071, 100.300 302.686, 102.500 302.024 C 107.962 300.381, 125.610 299.721, 128.122 301.065 C 131.097 302.658, 155.658 303.774, 172 303.060 C 179.107 302.750, 187.858 303.637, 189.274 304.813 C 191.157 306.375, 217.099 305.883, 218.821 304.251 C 219.548 303.563, 220.956 303, 221.949 303 C 224.967 303, 238.969 297.043, 238.989 295.750 C 238.995 295.337, 240.062 295, 241.360 295 C 242.713 295, 244.525 293.928, 245.607 292.488 C 246.644 291.106, 248.057 290.192, 248.747 290.456 C 249.436 290.721, 250 290.324, 250 289.576 C 250 288.321, 251.998 287.002, 253.760 287.093 C 254.852 287.149, 253.986 290.381, 252.650 291.235 C 251.799 291.779, 251.811 291.973, 252.700 291.985 C 253.479 291.995, 253.152 293.400, 251.764 296 C 250.590 298.200, 249.262 300, 248.814 300 C 248.367 300, 248 300.659, 248 301.465 C 248 302.270, 247.013 303.458, 245.807 304.103 C 244.601 304.749, 242.487 306.322, 241.110 307.599 C 239.733 308.876, 237.232 310.462, 235.553 311.125 C 233.874 311.787, 231.825 312.898, 231 313.593 C 230.175 314.289, 229.146 314.855, 228.713 314.853 C 228.055 314.848, 220.037 318.493, 210.250 323.245 C 209.012 323.846, 208 324.738, 208 325.228 C 208 325.718, 207.607 325.875, 207.126 325.578 C 206.194 325.002, 194.145 329.556, 192.550 331.088 C 192.028 331.589, 190.812 332, 189.850 332 C 188.887 332, 187.641 332.788, 187.080 333.750 C 186.519 334.712, 186.047 334.972, 186.030 334.327 C 186.010 333.520, 184.983 333.665, 182.750 334.790 C 180.963 335.691, 178.774 336.544, 177.886 336.687 C 176.999 336.829, 174.974 337.478, 173.386 338.129 C 171.799 338.780, 169.375 339.491, 168 339.709 C 166.625 339.927, 161.404 341.214, 156.399 342.569 C 147.116 345.082, 144.333 345.172, 129 343.462 C 121.904 342.670, 119.967 341.923, 115.607 338.296 C 112.380 335.611, 102.913 330.490, 101.750 330.800 C 101.338 330.910, 101.100 330.662, 101.223 330.250 C 101.345 329.837, 100.107 328.088, 98.473 326.361 C 96.838 324.635, 94.911 322.488, 94.190 321.590 C 93.470 320.691, 92.462 320.214, 91.952 320.530 C 91.433 320.851, 91.313 320.347, 91.681 319.388 C 92.128 318.224, 91.964 317.904, 91.170 318.395 C 90.433 318.850, 90 318.413, 90 317.214 C 90 316.167, 89.170 314.559, 88.155 313.640 C 85.823 311.530, 86.003 307.202, 88.499 305.377 C 90.194 304.138, 90.241 303.812, 88.914 302.485 C 87.668 301.239, 86.964 301.199, 84.679 302.245 C 82.183 303.388, 81.991 303.855, 82.526 307.500 C 82.849 309.700, 83.498 312.400, 83.967 313.500 C 84.437 314.600, 85.639 317.601, 86.639 320.168 C 87.639 322.735, 88.804 324.621, 89.228 324.359 C 89.653 324.097, 90 324.277, 90 324.760 C 90 326.026, 100.605 337.061, 101.225 336.441 C 101.511 336.155, 104.728 338.876, 108.375 342.486 C 112.021 346.097, 116.076 349.459, 117.387 349.957 C 120.480 351.133, 134.805 351.552, 135.763 350.494 C 136.168 350.046, 135.943 350, 135.261 350.392 C 134.412 350.880, 134.220 350.589, 134.651 349.468 C 135.001 348.554, 135.548 348.269, 135.890 348.823 C 136.582 349.942, 150.933 349.778, 152.792 348.629 C 153.456 348.218, 154 348.109, 154 348.387 C 154 348.665, 156.363 348.188, 159.250 347.327 C 162.137 346.466, 165.175 345.625, 166 345.457 C 166.825 345.290, 167.725 345.050, 168 344.924 C 168.275 344.798, 168.950 344.618, 169.500 344.523 C 172.818 343.951, 179.613 341.435, 180.235 340.549 C 180.639 339.972, 180.976 339.893, 180.985 340.372 C 180.993 340.852, 181.563 340.804, 182.250 340.266 C 182.938 339.727, 186.875 338.069, 191 336.581 C 195.125 335.093, 199.281 333.454, 200.236 332.938 C 201.191 332.422, 202.654 332, 203.486 332 C 204.319 332, 205 331.601, 205 331.113 C 205 330.307, 206.950 329.710, 212.500 328.821 C 213.600 328.644, 214.852 327.952, 215.282 327.282 C 216.099 326.008, 221.883 322.991, 224.172 322.645 C 224.903 322.534, 226.063 322.092, 226.750 321.663 C 227.438 321.233, 228.450 321.160, 229 321.500 C 229.550 321.840, 230 321.650, 230 321.078 C 230 320.506, 231.125 319.756, 232.500 319.411 C 233.875 319.066, 235 318.431, 235 318 C 235 317.569, 236.143 316.930, 237.541 316.579 C 238.938 316.228, 239.843 315.556, 239.552 315.084 C 239.054 314.278, 242.586 312.646, 244.278 312.901 C 244.706 312.966, 245.316 312.339, 245.635 311.509 C 245.953 310.679, 247.178 309.991, 248.357 309.980 C 249.864 309.966, 251.390 308.450, 253.500 304.869 C 255.150 302.069, 257.524 298.591, 258.776 297.139 C 261.539 293.935, 264.246 285.205, 263.815 280.884 C 263.339 276.114, 260.432 274.678, 255.833 276.941" stroke="none" fill="black" fill-rule="evenodd"/>
</svg>