<svg xmlns="http://www.w3.org/2000/svg" width="448" height="490" viewBox="0 0 448 490" version="1.1">
	<path d="M 0.006 228.040 L -0.012 456.172 3.490 451.836 C 7.332 447.080, 11 439.853, 11 437.040 C 11 436.052, 11.695 434.668, 12.546 433.962 C 13.396 433.257, 13.875 432.116, 13.610 431.426 C 12.719 429.103, 17.621 415.706, 22.182 408 C 23.321 406.075, 25.836 401.800, 27.770 398.500 C 34.076 387.742, 37.809 382.414, 41.658 378.675 C 43.739 376.654, 45.705 375, 46.026 375 C 46.347 375, 46.721 378.488, 46.857 382.750 C 47.174 392.703, 48.418 398.117, 51.510 403.016 C 55.395 409.170, 57.921 410.397, 64.012 409.091 C 71.858 407.408, 73.889 407.662, 75.174 410.483 C 77.494 415.574, 85.292 414.779, 95.924 408.368 C 98.991 406.518, 101.838 405.004, 102.250 405.003 C 102.662 405.001, 103 407.070, 103 409.600 C 103 413.498, 103.519 414.719, 106.400 417.600 C 110.667 421.867, 115.372 422.144, 121.600 418.494 C 125.516 416.199, 128.095 416.419, 126.552 418.916 C 124.853 421.665, 131.721 430.813, 137.181 433.075 C 140.589 434.486, 143.576 433.366, 148.528 428.818 L 151.557 426.037 158.028 430.018 C 161.588 432.208, 165.253 433.999, 166.173 433.999 C 167.094 434, 169.199 432.862, 170.852 431.471 C 174.176 428.674, 174.096 430.116, 172.051 410 C 171.576 405.325, 171.347 401.336, 171.541 401.136 C 171.736 400.936, 173.381 401.680, 175.197 402.791 C 181.106 406.403, 208.368 411.013, 223.500 410.959 C 230.253 410.934, 245.849 408.274, 251 406.267 C 252.375 405.731, 254.656 405.014, 256.068 404.673 L 258.636 404.053 257.865 410.455 C 257.441 413.977, 256.157 419.702, 255.010 423.179 C 252.773 429.965, 253 435.925, 255.578 438.065 C 256.360 438.714, 257 439.879, 257 440.654 C 257 441.429, 257.788 442.363, 258.750 442.731 C 259.712 443.098, 261.391 444.227, 262.480 445.238 C 263.569 446.250, 265.515 447.342, 266.804 447.666 C 269.745 448.404, 274.127 446.494, 273.463 444.764 C 272.752 442.911, 278.335 436.530, 280.077 437.203 C 280.859 437.505, 282.625 440.040, 284 442.835 C 286.074 447.052, 287.292 448.248, 291.149 449.861 L 295.798 451.805 299.343 449.283 C 301.293 447.895, 303.322 445.515, 303.853 443.993 C 305.088 440.449, 308.775 436.187, 312.101 434.456 C 314.348 433.287, 315.028 433.326, 317.101 434.741 C 318.420 435.642, 319.838 436.930, 320.251 437.603 C 320.716 438.360, 323.534 438.846, 327.648 438.877 C 332.666 438.916, 334.810 439.385, 336.397 440.794 C 337.554 441.820, 340.397 443.200, 342.716 443.860 C 347.830 445.315, 350.538 444.059, 351.382 439.841 C 351.783 437.833, 352.717 436.869, 354.720 436.392 C 358.037 435.604, 361 433.216, 361 431.331 C 361 430.584, 361.405 429.191, 361.900 428.236 C 362.890 426.328, 369.180 406.145, 371.012 399 C 374.706 384.594, 375.424 383.391, 380 383.944 C 382.246 384.216, 394.385 392.734, 397.670 396.343 C 399.250 398.079, 402.878 401.553, 405.732 404.063 C 408.586 406.573, 412.326 410.398, 414.042 412.563 C 415.759 414.728, 418.522 418.172, 420.184 420.215 C 423.413 424.188, 432.261 438.183, 435.407 444.295 C 436.457 446.333, 437.694 448, 438.157 448 C 438.621 448, 439 448.439, 439 448.975 C 439 449.511, 440.271 452.774, 441.824 456.225 C 443.377 459.676, 445.289 464.075, 446.074 466 L 447.500 469.500 448.154 461 C 448.513 456.325, 448.845 350.680, 448.891 226.233 L 448.975 -0.033 422.737 0.233 L 396.500 0.500 396.179 4 C 396.002 5.925, 395.385 7.950, 394.807 8.500 C 394.077 9.195, 393.909 8.048, 394.256 4.743 L 394.756 -0.013 221.179 0.243 L 47.603 0.500 47.455 3.263 C 47.290 6.353, 45.966 8.171, 45.280 6.250 C 45.034 5.563, 43.633 4.947, 42.167 4.882 C 39.515 4.764, 39.516 4.759, 42.500 4 C 45.425 3.256, 45.402 3.234, 41.583 3.118 C 39.429 3.053, 37.991 2.676, 38.387 2.280 C 38.783 1.884, 40.709 1.697, 42.666 1.866 C 44.813 2.051, 45.984 1.783, 45.617 1.189 C 45.252 0.599, 36.012 0.146, 22.517 0.057 L 0.025 -0.092 0.006 228.040 M 0.195 3.500 C 0.215 5.150, 0.439 5.704, 0.693 4.731 C 0.947 3.758, 0.930 2.408, 0.656 1.731 C 0.382 1.054, 0.175 1.850, 0.195 3.500 M 38.459 7.067 C 38.096 7.653, 38.040 8.373, 38.333 8.667 C 39.050 9.383, 41 8.121, 41 6.941 C 41 5.663, 39.274 5.748, 38.459 7.067 M 0.491 232 C 0.491 355.475, 0.608 405.987, 0.750 344.250 C 0.892 282.512, 0.892 181.487, 0.750 119.750 C 0.608 58.012, 0.491 108.525, 0.491 232 M 45.195 10.500 C 45.215 12.150, 45.439 12.704, 45.693 11.731 C 45.947 10.758, 45.930 9.408, 45.656 8.731 C 45.382 8.054, 45.175 8.850, 45.195 10.500 M 44.260 15.546 C 43.415 16.465, 43.356 17.102, 44.076 17.547 C 45.454 18.399, 46.264 17.539, 45.838 15.677 C 45.556 14.440, 45.297 14.418, 44.260 15.546 M 83.205 27.782 C 83.198 30.686, 82.616 33.758, 81.911 34.608 C 80.908 35.816, 80.895 36.317, 81.850 36.907 C 83.619 38.001, 83.162 50, 81.350 50 C 79.227 50, 79.774 52.128, 82.051 52.724 C 83.725 53.161, 83.986 53.787, 83.471 56.130 C 83.100 57.822, 83.259 59, 83.858 59 C 84.418 59, 84.895 58.212, 84.918 57.250 C 84.942 56.288, 85.092 50.100, 85.252 43.500 C 85.420 36.601, 85.050 29.587, 84.381 27 L 83.218 22.500 83.205 27.782 M 40.195 26.500 C 40.215 28.150, 40.439 28.704, 40.693 27.731 C 40.947 26.758, 40.930 25.408, 40.656 24.731 C 40.382 24.054, 40.175 24.850, 40.195 26.500 M 10.079 27.583 C 10.127 28.748, 10.364 28.985, 10.683 28.188 C 10.972 27.466, 10.936 26.603, 10.604 26.271 C 10.272 25.939, 10.036 26.529, 10.079 27.583 M 349.447 40.250 C 349.723 44.788, 349.960 52.512, 349.974 57.417 C 349.988 62.321, 350.308 66.026, 350.684 65.649 C 352.434 63.899, 351.647 32, 349.853 32 C 349.341 32, 349.164 35.601, 349.447 40.250 M 252.500 40 C 252.840 40.550, 253.316 41, 253.559 41 C 253.802 41, 254 40.550, 254 40 C 254 39.450, 253.523 39, 252.941 39 C 252.359 39, 252.160 39.450, 252.500 40 M 120.158 45 C 120.158 46.375, 120.385 46.938, 120.662 46.250 C 120.940 45.563, 120.940 44.438, 120.662 43.750 C 120.385 43.063, 120.158 43.625, 120.158 45 M 245.664 47.735 C 245.311 48.306, 245.703 49.338, 246.535 50.029 C 248.588 51.733, 249.290 50.780, 247.642 48.526 C 246.823 47.405, 246.057 47.099, 245.664 47.735 M 117.813 48.683 C 118.534 48.972, 119.397 48.936, 119.729 48.604 C 120.061 48.272, 119.471 48.036, 118.417 48.079 C 117.252 48.127, 117.015 48.364, 117.813 48.683 M 118.694 52.750 C 117.821 56.218, 117.989 61, 118.984 61 C 119.543 61, 120 58.750, 120 56 C 120 50.899, 119.484 49.614, 118.694 52.750 M 114.500 53 C 114.840 53.550, 115.316 54, 115.559 54 C 115.802 54, 116 53.550, 116 53 C 116 52.450, 115.523 52, 114.941 52 C 114.359 52, 114.160 52.450, 114.500 53 M 208.517 53.568 C 206.876 54.423, 204.764 55.950, 203.823 56.960 C 202.882 57.970, 201.524 59.005, 200.806 59.261 C 200.088 59.517, 199.826 60.076, 200.225 60.504 C 200.623 60.932, 202.949 59.644, 205.393 57.641 C 207.837 55.639, 210.323 54, 210.918 54 C 211.513 54, 212 53.550, 212 53 C 212 51.731, 212.058 51.721, 208.517 53.568 M 82.219 64 C 82.274 65.919, 82.828 67, 83.759 67 C 84.675 67, 84.989 66.414, 84.607 65.418 C 84.273 64.548, 84 63.198, 84 62.418 C 84 61.638, 83.580 61, 83.067 61 C 82.554 61, 82.172 62.350, 82.219 64 M 117 68 C 117 70.200, 117.450 72, 118 72 C 118.550 72, 119 70.200, 119 68 C 119 65.800, 118.550 64, 118 64 C 117.450 64, 117 65.800, 117 68 M 82.510 68.984 C 81.773 70.177, 82.709 72, 84.059 72 C 85.276 72, 85.284 69.293, 84.069 68.543 C 83.557 68.226, 82.856 68.425, 82.510 68.984 M 82.828 77.009 C 82.594 79.464, 82.844 80.886, 83.473 80.677 C 84.715 80.265, 85.273 73, 84.063 73 C 83.594 73, 83.038 74.804, 82.828 77.009 M 62.980 77.500 C 62.201 81.560, 62.244 96, 63.035 96 C 63.566 96, 64.058 94.088, 64.129 91.750 C 64.200 89.412, 64.345 86.150, 64.451 84.500 C 64.640 81.579, 63.363 75.504, 62.980 77.500 M 279.315 78.085 C 278.515 78.885, 278.593 79.910, 279.601 81.843 C 281.134 84.780, 281.634 105.510, 280.151 104.593 C 279.684 104.304, 278.683 105.223, 277.928 106.635 C 276.713 108.905, 276.759 109.351, 278.330 110.500 C 279.639 111.457, 279.763 111.913, 278.803 112.236 C 275.699 113.280, 274 111.800, 274 108.050 C 274 104.813, 273.710 104.356, 271.750 104.503 C 270.144 104.624, 269.156 103.861, 268.298 101.836 C 267.637 100.276, 266.674 99, 266.157 99 C 265.002 99, 263.718 103.736, 264.522 105.035 C 264.842 105.554, 264.293 107.670, 263.302 109.739 C 261.269 113.981, 261.118 122.232, 263.030 124.536 C 264.406 126.194, 269.736 126.216, 271.937 124.573 C 273.075 123.724, 273.243 123.852, 272.743 125.185 C 272.394 126.118, 272.645 127.051, 273.306 127.273 C 274.011 127.511, 274.500 129.656, 274.500 132.511 C 274.500 137.294, 274.538 137.351, 278 137.746 C 279.925 137.965, 281.928 138.563, 282.450 139.073 C 284.496 141.070, 285.022 139.846, 283.341 137 C 282.366 135.350, 281.033 134, 280.378 134 C 279.680 134, 279.403 133.173, 279.710 132 C 280.217 130.062, 281.142 129.587, 283.750 129.925 C 285.452 130.146, 285.324 128.467, 283.500 126.643 C 281.580 124.722, 281.609 124.391, 283.906 122.094 C 286.934 119.066, 287.412 107.953, 285.171 92.680 C 283.294 79.893, 281.637 75.763, 279.315 78.085 M 5.559 79.532 C 3.939 80.757, 3.887 81, 5.242 81 C 6.401 81, 6.842 81.864, 6.781 84.014 C 6.733 85.672, 7 87.333, 7.373 87.706 C 7.745 88.079, 7.968 86.047, 7.867 83.192 C 7.765 80.336, 7.642 78.014, 7.591 78.032 C 7.541 78.049, 6.626 78.724, 5.559 79.532 M 317.503 89.500 C 318.297 93.229, 320 95.201, 320 92.391 C 320 91.286, 319.294 89.509, 318.432 88.441 C 316.941 86.596, 316.895 86.648, 317.503 89.500 M 266.079 89.583 C 266.127 90.748, 266.364 90.985, 266.683 90.188 C 266.972 89.466, 266.936 88.603, 266.604 88.271 C 266.272 87.939, 266.036 88.529, 266.079 89.583 M 272.500 97 C 272.840 97.550, 273.316 98, 273.559 98 C 273.802 98, 274 97.550, 274 97 C 274 96.450, 273.523 96, 272.941 96 C 272.359 96, 272.160 96.450, 272.500 97 M 62.583 97.866 C 62.152 98.563, 62.070 99.403, 62.400 99.733 C 63.295 100.628, 64.271 99.312, 63.787 97.862 C 63.449 96.846, 63.213 96.846, 62.583 97.866 M 62.788 102 C 61.558 105, 61.152 109.627, 61.997 110.995 C 62.657 112.063, 63.015 111.788, 63.505 109.836 C 64.293 106.695, 63.667 99.854, 62.788 102 M 254 102.500 C 254 103.325, 254.450 104, 255 104 C 255.550 104, 256 103.325, 256 102.500 C 256 101.675, 255.550 101, 255 101 C 254.450 101, 254 101.675, 254 102.500 M 254 108.500 C 254 109.991, 254.431 110.852, 255 110.500 C 255.550 110.160, 256 109.260, 256 108.500 C 256 107.740, 255.550 106.840, 255 106.500 C 254.431 106.148, 254 107.009, 254 108.500 M 156.389 108.765 C 155.778 109.169, 154.963 111.638, 154.578 114.250 C 154.002 118.152, 154.151 119, 155.407 119 C 156.356 119, 156.719 119.569, 156.362 120.500 C 156.045 121.325, 155.133 122, 154.334 122 C 153.535 122, 153.154 122.441, 153.487 122.980 C 154.293 124.283, 158 121.961, 158 120.152 C 158 119.388, 158.621 119.024, 159.408 119.326 C 161.200 120.014, 162.395 115.702, 161.089 113.262 C 160.570 112.293, 159.902 110.713, 159.604 109.750 C 159.022 107.868, 158.150 107.601, 156.389 108.765 M 258.638 109.500 C 257.904 111.414, 258.928 114.162, 260.105 113.435 C 261.270 112.715, 261.272 108, 260.107 108 C 259.616 108, 258.955 108.675, 258.638 109.500 M 289.631 121.250 C 288.840 126.846, 289.076 129, 290.483 129 C 292.343 129, 293.306 123.936, 292.066 120.674 C 290.735 117.172, 290.189 117.301, 289.631 121.250 M 285 123 C 285 123.550, 285.450 124, 286 124 C 286.550 124, 287 123.550, 287 123 C 287 122.450, 286.550 122, 286 122 C 285.450 122, 285 122.450, 285 123 M 219.014 124.628 C 219.045 128.922, 220.237 131.108, 222.380 130.802 C 224.015 130.569, 224.508 129.783, 224.535 127.370 C 224.561 125.102, 224.148 124.309, 223.035 124.492 C 222.191 124.630, 220.938 124.296, 220.250 123.749 C 219.341 123.026, 219.004 123.265, 219.014 124.628 M 211 129.045 C 211 132.363, 206.747 135.779, 201.876 136.375 C 196.510 137.032, 168.183 139.146, 162 139.351 L 157.500 139.500 156.848 148.048 C 156.489 152.749, 155.509 158.239, 154.670 160.248 C 153.830 162.257, 152.404 169.660, 151.501 176.700 C 150.597 183.740, 149.378 191.750, 148.792 194.500 C 146.699 204.326, 150.584 251.599, 154.567 264.768 C 157.727 275.214, 162.117 280.800, 181.472 299 C 182.934 300.375, 185.045 302.457, 186.163 303.627 C 188.813 306.400, 214.053 318.901, 220.500 320.633 C 232.379 323.824, 241.497 321.460, 255.284 311.613 C 268.430 302.224, 287.873 281.405, 288.545 276 C 288.647 275.175, 289.412 272.925, 290.245 271 C 291.077 269.075, 292.063 264.800, 292.435 261.500 C 292.808 258.200, 293.528 254.150, 294.036 252.500 C 294.545 250.850, 295.637 244.550, 296.464 238.500 C 297.290 232.450, 298.633 223.675, 299.447 219 C 304.478 190.103, 307.468 153.704, 305.107 150.093 C 304.471 149.119, 302.463 148.742, 298.597 148.868 C 294.994 148.986, 292.178 148.507, 290.674 147.522 C 289.390 146.681, 288.100 146.234, 287.805 146.528 C 285.982 148.351, 282.862 147.625, 280.510 144.829 C 278.280 142.179, 277.507 141.870, 274.513 142.432 C 271.822 142.936, 270.634 142.634, 269.038 141.038 C 267.917 139.917, 267 138.589, 267 138.087 C 267 137.582, 265.679 137.672, 264.044 138.290 C 261.846 139.119, 258.572 139.094, 251.294 138.193 C 238.942 136.664, 238.467 136.675, 236.595 138.548 C 235.420 139.723, 234.576 139.843, 233.089 139.048 C 232.013 138.472, 229.106 138, 226.631 138 C 224.155 138, 220.994 137.568, 219.605 137.040 C 216.459 135.844, 212.745 132.222, 213.467 131.054 C 214.172 129.913, 213.041 127, 211.893 127 C 211.402 127, 211 127.920, 211 129.045 M 152 129.139 C 152 129.612, 153.125 130, 154.500 130 C 155.875 130, 157 129.827, 157 129.617 C 157 129.406, 155.875 129.018, 154.500 128.755 C 153.125 128.492, 152 128.665, 152 129.139 M 304 137.083 C 304 141.503, 304.342 143.054, 305.250 142.755 C 306.823 142.237, 307.361 138.740, 306.541 134.369 C 305.515 128.898, 304 130.516, 304 137.083 M 258.192 133.075 C 258.389 133.666, 258.978 134.150, 259.500 134.150 C 260.022 134.150, 260.611 133.666, 260.808 133.075 C 261.005 132.484, 260.417 132, 259.500 132 C 258.583 132, 257.995 132.484, 258.192 133.075 M 344 137.382 C 344 138.757, 344.450 140.160, 345 140.500 C 345.565 140.849, 346 140.030, 346 138.618 C 346 137.243, 345.550 135.840, 345 135.500 C 344.435 135.151, 344 135.970, 344 137.382 M 311.638 148.500 C 311.955 149.325, 312.391 150, 312.607 150 C 312.823 150, 313 149.325, 313 148.500 C 313 147.675, 312.564 147, 312.031 147 C 311.499 147, 311.322 147.675, 311.638 148.500 M 144.656 155.206 C 144.339 156.420, 144.311 157.644, 144.594 157.927 C 145.241 158.574, 146.964 155.923, 146.985 154.250 C 147.010 152.147, 145.269 152.862, 144.656 155.206 M 184.500 155.008 C 176.317 156.371, 174 157.159, 174 158.581 C 174 159.323, 174.870 160.395, 175.934 160.965 C 178.403 162.286, 184.691 162.309, 185.500 161 C 185.844 160.443, 190.472 160, 195.944 160 C 207.713 160, 213.764 161.708, 220.765 167.007 C 226.241 171.152, 232.571 172.835, 235.925 171.040 C 237.066 170.429, 238 169.347, 238 168.634 C 238 163.770, 264.153 160.721, 272.349 164.629 C 276.562 166.638, 278.101 165.874, 275.540 163.044 C 272.445 159.625, 267.587 158.745, 254.137 159.169 C 242.459 159.537, 240.985 159.808, 234.722 162.744 L 227.945 165.921 221.769 161.929 C 218.373 159.734, 213.323 157.298, 210.547 156.517 C 204.087 154.698, 190.937 153.936, 184.500 155.008 M 311.195 173.500 C 311.215 175.150, 311.439 175.704, 311.693 174.731 C 311.947 173.758, 311.930 172.408, 311.656 171.731 C 311.382 171.054, 311.175 171.850, 311.195 173.500 M 234.809 178.750 C 232.399 181.335, 230 185.167, 230 186.434 C 230 188.042, 234.090 186.689, 235.090 184.750 C 235.728 183.512, 237.141 181.521, 238.230 180.324 C 240.037 178.338, 239.982 176, 238.128 176 C 237.713 176, 236.220 177.238, 234.809 178.750 M 176.239 179.976 C 170.735 180.822, 166.281 183.105, 165.336 185.566 C 164.284 188.308, 167.996 191.907, 175.740 195.653 C 182.848 199.092, 184.214 199.407, 192 199.400 C 198.881 199.395, 201.262 198.974, 204.500 197.188 C 209.388 194.491, 213.641 191.270, 212.985 190.760 C 200.804 181.294, 189.415 177.951, 176.239 179.976 M 209.371 180.474 C 208.636 182.392, 211.086 184.795, 214.389 185.394 C 217.739 186.002, 217.688 185.034, 214.195 181.687 C 210.987 178.614, 210.165 178.407, 209.371 180.474 M 248.905 180.013 C 244.457 180.765, 240 182.817, 240 184.113 C 240 184.461, 240.880 186.735, 241.955 189.166 C 244.699 195.369, 248.772 197.158, 261.500 197.753 C 270.591 198.177, 272 197.993, 277 195.722 C 280.025 194.348, 283.400 192.526, 284.500 191.674 L 286.500 190.124 284.500 188.618 C 283.400 187.789, 281.375 186.525, 280 185.807 C 278.625 185.090, 277.245 184.160, 276.934 183.741 C 276.623 183.321, 273.822 182.083, 270.709 180.989 C 264.845 178.928, 257.311 178.590, 248.905 180.013 M 176.750 186.658 C 174.688 187.514, 173 188.772, 173 189.455 C 173 190.939, 179.026 193.684, 184.250 194.580 C 187.890 195.204, 188 195.135, 188 192.234 C 188 190.590, 188.675 188.685, 189.500 188 C 190.325 187.315, 191 186.360, 191 185.878 C 191 184.428, 180.776 184.989, 176.750 186.658 M 255.872 186.017 C 243.634 188.085, 244.041 193.002, 256.450 192.997 L 263.500 192.994 263.549 188.997 C 263.602 184.607, 263.790 184.679, 255.872 186.017 M 200.512 186.981 C 199.802 188.130, 202.722 190.290, 203.956 189.527 C 204.530 189.172, 205 188.511, 205 188.058 C 205 186.928, 201.120 185.997, 200.512 186.981 M 275.229 187.187 C 275.727 188.682, 278 189.505, 278 188.190 C 278 187.653, 277.287 186.941, 276.416 186.606 C 275.443 186.233, 274.985 186.456, 275.229 187.187 M 308.962 187.550 C 308.878 189.670, 307.818 196.951, 306.495 204.500 C 305.724 208.900, 304.813 215.425, 304.469 219 C 304.126 222.575, 303.267 230, 302.559 235.500 C 301.851 241, 301.249 246.625, 301.220 248 C 301.192 249.375, 300.675 254.241, 300.072 258.812 C 299.141 265.859, 299.204 267.454, 300.487 269.285 C 301.319 270.473, 302 270.868, 302 270.163 C 302 269.459, 302.450 269.160, 303 269.500 C 303.558 269.845, 303.993 269.097, 303.985 267.809 C 303.972 265.909, 303.783 265.766, 302.919 267 C 302.109 268.157, 302.023 267.956, 302.542 266.125 C 302.976 264.591, 302.734 263.446, 301.857 262.890 C 300.770 262.202, 300.817 262.028, 302.092 262.015 C 303.080 262.006, 304.066 260.577, 304.691 258.250 C 306.020 253.301, 306.362 243, 305.196 243 C 304.691 243, 304.491 241.880, 304.753 240.512 C 305.015 239.143, 305.627 238.270, 306.114 238.571 C 306.923 239.070, 307.528 234.018, 307.170 229.750 C 307.090 228.787, 307.420 228, 307.905 228 C 309.329 228, 310.171 224.724, 308.942 223.964 C 308.125 223.459, 308.182 222.682, 309.148 221.134 C 310.222 219.414, 310.239 218.612, 309.232 217 C 308.492 215.814, 308.394 215, 308.992 215 C 309.546 215, 310 213.725, 310 212.167 C 310 210.608, 310.289 209.044, 310.643 208.690 C 311.798 207.536, 311.354 188.954, 310.143 187.743 C 309.514 187.114, 308.983 187.028, 308.962 187.550 M 223 191.839 C 223 192.301, 221.942 193.161, 220.649 193.750 C 218.042 194.938, 212.275 205.994, 206.957 220 C 205.182 224.675, 203.381 228.950, 202.954 229.500 C 202.528 230.050, 201.875 232.125, 201.504 234.110 C 200.311 240.498, 204.083 241.977, 227.675 244.367 C 231.026 244.706, 232.258 244.354, 233.925 242.580 C 235.066 241.365, 236 239.703, 236 238.886 C 236 238.068, 236.472 236.928, 237.048 236.352 C 237.777 235.623, 237.778 234.574, 237.051 232.902 C 235.050 228.299, 229 201.574, 229 197.338 C 229 194.142, 228.514 192.810, 227.066 192.035 C 224.727 190.783, 223 190.700, 223 191.839 M 241.867 199.750 C 244.744 205.118, 253.377 209.941, 260 209.880 C 264.323 209.840, 270.238 207.785, 270.790 206.130 C 271.104 205.187, 269.416 205.060, 263.583 205.589 C 257.513 206.139, 255.614 205.974, 254.233 204.778 C 251.692 202.577, 243.516 198, 242.127 198 C 241.296 198, 241.217 198.536, 241.867 199.750 M 108.232 214 C 103.252 224.397, 96 242.994, 96 245.369 C 96 245.716, 96.461 246, 97.025 246 C 98.006 246, 99.698 242.521, 100.374 239.114 C 100.550 238.226, 101.165 236.375, 101.741 235 C 102.317 233.625, 104.691 227.775, 107.018 222 C 109.346 216.225, 112.120 209.779, 113.183 207.675 C 114.247 205.572, 114.915 203.322, 114.668 202.675 C 114.422 202.029, 111.525 207.125, 108.232 214 M 196.500 205.036 C 192.013 207.181, 186.876 207.539, 183.849 205.919 C 180.945 204.365, 180.252 205.697, 182.694 208.138 C 186.162 211.606, 192.532 211.685, 198.900 208.338 C 201.870 206.777, 204.345 205.050, 204.400 204.500 C 204.572 202.779, 200.668 203.043, 196.500 205.036 M 166 211.417 C 166 212.196, 165.438 213.060, 164.750 213.338 C 164.063 213.615, 164.512 213.878, 165.750 213.921 C 166.988 213.964, 168 213.520, 168 212.933 C 168 212.309, 168.935 212.123, 170.250 212.484 C 172.437 213.086, 172.445 213.060, 170.559 211.552 C 168.136 209.615, 166 209.552, 166 211.417 M 170.750 214.662 C 171.438 214.940, 172.563 214.940, 173.250 214.662 C 173.938 214.385, 173.375 214.158, 172 214.158 C 170.625 214.158, 170.063 214.385, 170.750 214.662 M 211.667 226.667 C 210.653 227.680, 210.870 235.198, 211.894 234.565 C 212.386 234.261, 212.961 232.210, 213.171 230.006 C 213.537 226.170, 213.110 225.223, 211.667 226.667 M 312.447 231.241 C 310.376 240.662, 310.420 259.639, 312.493 251.752 C 312.891 250.241, 312.962 248.343, 312.652 247.534 C 312.341 246.726, 312.458 245.835, 312.911 245.555 C 313.364 245.275, 313.567 243.038, 313.363 240.585 C 313.158 238.131, 313.443 235.844, 313.996 235.503 C 315.254 234.725, 315.320 229.316, 314.081 228.550 C 313.576 228.238, 312.840 229.449, 312.447 231.241 M 82.659 238 C 81.113 242.040, 78.996 252.185, 79.522 253.036 C 79.850 253.566, 80.793 254, 81.618 254 C 82.443 254, 82.835 253.543, 82.490 252.984 C 82.144 252.425, 81.330 252.286, 80.681 252.676 C 79.806 253.200, 79.781 253.010, 80.582 251.942 C 82.046 249.992, 84.381 239.607, 83.744 237.883 C 83.325 236.749, 83.129 236.770, 82.659 238 M 243.088 243.394 C 242.151 244.523, 242.882 245.261, 246.940 247.283 C 249.694 248.655, 253.197 250.853, 254.724 252.166 C 258.989 255.835, 267.314 266.020, 266.617 266.716 C 266.276 267.057, 263.860 266.783, 261.249 266.107 C 258.637 265.431, 253.800 264.450, 250.500 263.927 C 247.200 263.405, 242.134 262.294, 239.241 261.458 C 235.307 260.322, 233.471 260.213, 231.953 261.025 C 230.837 261.623, 228.028 261.974, 225.712 261.806 L 221.500 261.500 221.401 255.500 C 221.314 250.162, 221.066 249.465, 219.151 249.180 C 217.642 248.956, 216.975 249.404, 216.918 250.680 C 216.801 253.274, 215.930 258.404, 215.540 258.793 C 214.841 259.492, 202.221 260.961, 196.750 260.980 C 192.987 260.993, 191 260.592, 191 259.820 C 191 259.171, 193.025 256.754, 195.500 254.449 C 197.975 252.144, 200 249.991, 200 249.664 C 200 249.338, 199.046 248.560, 197.880 247.936 C 195.996 246.927, 195.104 247.450, 189.880 252.619 C 184.183 258.256, 184 258.602, 184 263.719 C 184 268.422, 184.230 269, 186.106 269 C 187.264 269, 189.852 270.288, 191.856 271.863 C 193.860 273.438, 197.075 275.521, 199 276.492 C 200.925 277.464, 204.651 279.824, 207.281 281.737 C 212.767 285.729, 220.704 289, 224.903 289 C 229.754 289, 248.232 285.082, 253 283.042 C 255.475 281.983, 259.121 280.627, 261.103 280.029 C 265.474 278.710, 269.149 275.016, 269.351 271.737 C 269.460 269.959, 269.964 269.439, 271.250 269.776 C 273.455 270.352, 273.521 268.677, 271.364 266.887 C 270.464 266.140, 268.714 263.948, 267.474 262.015 C 264.553 257.459, 253.538 246.299, 249.580 243.886 C 245.897 241.640, 244.624 241.543, 243.088 243.394 M 404.272 248 C 404.272 250.475, 404.467 251.488, 404.706 250.250 C 404.944 249.012, 404.944 246.988, 404.706 245.750 C 404.467 244.512, 404.272 245.525, 404.272 248 M 55.543 249.931 C 55.226 250.443, 55.425 251.144, 55.984 251.490 C 56.543 251.835, 57 251.416, 57 250.559 C 57 248.802, 56.400 248.544, 55.543 249.931 M 223.492 254.045 C 223.061 256.599, 223.203 258.603, 223.863 259.263 C 225.170 260.570, 226.133 258.484, 226.351 253.873 C 226.577 249.072, 224.309 249.209, 223.492 254.045 M 280.742 254.125 C 279.545 254.795, 279 256.334, 279 259.050 C 279 262.612, 279.249 263, 281.537 263 C 283.973 263, 284.052 262.812, 283.511 258.307 C 282.843 252.744, 282.942 252.893, 280.742 254.125 M 403.583 254.866 C 403.152 255.563, 403.070 256.403, 403.400 256.733 C 404.295 257.628, 405.271 256.312, 404.787 254.862 C 404.449 253.846, 404.213 253.846, 403.583 254.866 M 80 256 C 80 256.550, 80.450 257, 81 257 C 81.550 257, 82 256.550, 82 256 C 82 255.450, 81.550 255, 81 255 C 80.450 255, 80 255.450, 80 256 M 113 260 C 113 260.550, 113.450 261, 114 261 C 114.550 261, 115 260.550, 115 260 C 115 259.450, 114.550 259, 114 259 C 113.450 259, 113 259.450, 113 260 M 98 266.014 C 98 267.121, 97.603 268.809, 97.117 269.764 C 95.056 273.820, 92.003 282.690, 92.039 284.519 C 92.067 285.932, 92.483 285.568, 93.491 283.250 C 94.268 281.462, 95.072 280, 95.279 280 C 95.840 280, 95.164 288.144, 94.374 290.906 C 93.888 292.604, 94.026 293.102, 94.842 292.597 C 95.479 292.204, 96 291.046, 96 290.024 C 96 289.003, 96.437 288.017, 96.971 287.833 C 98.014 287.475, 99.628 264, 98.609 264 C 98.274 264, 98 264.906, 98 266.014 M 110.481 267.390 C 109.632 269.424, 109.183 271.487, 109.484 271.975 C 109.786 272.463, 109.617 273.119, 109.109 273.433 C 108.601 273.747, 107.433 276.590, 106.515 279.752 C 105.596 282.913, 104 288.425, 102.967 292 C 101.935 295.575, 99.674 305.475, 97.943 314 C 96.213 322.525, 94.336 330.064, 93.774 330.752 C 93.211 331.441, 93.010 333.301, 93.327 334.884 C 93.644 336.468, 93.587 338.080, 93.201 338.465 C 92.816 338.851, 92.451 340.367, 92.392 341.833 C 91.952 352.670, 91.575 356, 90.787 356 C 90.289 356, 90.233 356.563, 90.663 357.250 C 91.831 359.120, 91.935 360.922, 90.911 361.555 C 89.716 362.294, 89.733 365, 90.933 365 C 92.257 365, 93.260 361.312, 93.516 355.500 C 93.637 352.750, 93.982 349.825, 94.283 349 C 94.991 347.060, 96.212 338.223, 96.218 335 C 96.221 333.410, 96.391 333.137, 96.685 334.250 C 97.555 337.546, 99.245 336.118, 98.592 332.638 C 98.136 330.208, 98.399 328.913, 99.542 327.965 C 100.532 327.144, 101.018 325.428, 100.841 323.380 C 100.686 321.580, 100.823 319.844, 101.145 319.522 C 101.467 319.200, 101.577 317.620, 101.390 316.012 C 101.202 314.404, 101.558 312.773, 102.179 312.389 C 102.870 311.962, 103.032 312.139, 102.595 312.845 C 102.203 313.480, 102.359 314, 102.941 314 C 104.429 314, 104.267 310.283, 102.750 309.622 C 101.892 309.248, 102.206 308.556, 103.750 307.416 C 106.137 305.655, 106.856 301.021, 104.750 300.970 C 104.042 300.952, 104.245 300.505, 105.219 299.937 C 106.496 299.193, 106.782 298.158, 106.332 295.908 C 105.863 293.567, 106.184 292.560, 107.743 291.467 C 109.401 290.306, 109.672 289.273, 109.267 285.674 C 108.967 283.011, 109.293 280.353, 110.099 278.896 C 110.828 277.578, 111.307 276.094, 111.162 275.599 C 111.017 275.103, 111.381 272.450, 111.970 269.703 C 113.287 263.564, 112.555 262.427, 110.481 267.390 M 308.984 266 C 308.897 266.825, 308.676 268.962, 308.491 270.750 C 308.307 272.538, 308.571 274, 309.078 274 C 309.585 274, 310.034 273.438, 310.077 272.750 C 310.119 272.063, 310.282 270.825, 310.440 270 C 310.598 269.175, 310.370 267.600, 309.934 266.500 C 309.386 265.119, 309.092 264.964, 308.984 266 M 330.731 269.250 C 331.355 274.157, 333.105 278.184, 333.760 276.219 C 334.339 274.484, 332.001 265, 330.995 265 C 330.553 265, 330.434 266.913, 330.731 269.250 M 236.264 267.718 C 237.784 267.947, 240.034 267.941, 241.264 267.704 C 242.494 267.467, 241.250 267.279, 238.500 267.286 C 235.750 267.294, 234.744 267.488, 236.264 267.718 M 78.500 269 C 78.160 269.550, 78.021 270.034, 78.191 270.077 C 81.484 270.892, 82.044 270.758, 80.933 269.420 C 79.532 267.732, 79.308 267.693, 78.500 269 M 334.849 269.318 C 335.451 270.043, 336.442 272.964, 337.053 275.809 C 338.389 282.042, 340.464 284.099, 339.635 278.369 C 339.327 276.241, 339.059 273.745, 339.038 272.821 C 338.995 270.940, 336.415 268, 334.806 268 C 334.093 268, 334.107 268.424, 334.849 269.318 M 299 273.016 C 299 273.973, 299.675 275.315, 300.500 276 C 301.325 276.685, 302 277.865, 302 278.622 C 302 279.380, 302.367 280, 302.816 280 C 303.265 280, 303.603 278.231, 303.566 276.070 C 303.511 272.814, 303.114 272.065, 301.250 271.708 C 299.614 271.395, 299 271.752, 299 273.016 M 77.188 273.063 C 77.428 273.784, 78.216 274.572, 78.938 274.813 C 79.688 275.063, 80.063 274.688, 79.813 273.938 C 79.572 273.216, 78.784 272.428, 78.063 272.188 C 77.313 271.938, 76.938 272.313, 77.188 273.063 M 149.436 275.817 C 150.176 277.917, 151.318 282.216, 151.973 285.372 C 152.964 290.145, 153.402 290.911, 154.582 289.932 C 157.171 287.783, 156.260 282.366, 152.406 277.002 C 150.430 274.251, 148.650 272, 148.451 272 C 148.252 272, 148.695 273.718, 149.436 275.817 M 208 275.065 C 208 275.955, 218.718 280.642, 222.596 281.448 C 226.327 282.223, 238.211 279.880, 244.180 277.191 L 248.500 275.245 237 275.711 C 230.675 275.968, 221.563 275.779, 216.750 275.291 C 211.938 274.803, 208 274.701, 208 275.065 M 171.130 277.343 C 170.269 278.381, 170.526 278.915, 172.258 279.691 C 175.583 281.182, 177.232 280.344, 175.723 277.929 C 174.313 275.670, 172.690 275.463, 171.130 277.343 M 306.633 279.086 C 305.692 283.788, 305.866 288, 307 288 C 307.550 288, 308.034 287.663, 308.077 287.250 C 308.119 286.837, 308.321 285.600, 308.526 284.500 C 309.461 279.486, 309.411 276.639, 308.383 276.295 C 307.768 276.090, 306.981 277.346, 306.633 279.086 M 372 279.441 C 372 280.848, 372.450 282, 373 282 C 373.550 282, 374 281.127, 374 280.059 C 374 278.991, 373.550 277.840, 373 277.500 C 372.433 277.149, 372 277.990, 372 279.441 M 333 280 C 333 280.550, 333.477 281, 334.059 281 C 334.641 281, 334.840 280.550, 334.500 280 C 334.160 279.450, 333.684 279, 333.441 279 C 333.198 279, 333 279.450, 333 280 M 179.535 285.944 C 177.805 288.742, 183.909 295, 188.368 295 C 191.479 295, 190.110 293.102, 182.349 286.656 C 180.928 285.476, 179.973 285.234, 179.535 285.944 M 137.468 288.101 C 137.101 289.256, 137.296 290.696, 137.901 291.301 C 138.700 292.100, 139 291.526, 139 289.200 C 139 285.506, 138.423 285.092, 137.468 288.101 M 88.997 291.509 C 88.360 293.439, 88.058 295.576, 88.326 296.259 C 88.594 296.941, 89.138 296.028, 89.536 294.229 C 89.933 292.430, 90.650 290.716, 91.129 290.420 C 92.283 289.707, 92.246 288, 91.078 288 C 90.570 288, 89.634 289.579, 88.997 291.509 M 289.200 289.200 C 287.603 290.797, 287.681 292, 289.383 292 C 290.144 292, 291.002 291.100, 291.290 290 C 291.879 287.748, 290.992 287.408, 289.200 289.200 M 335.118 293.183 C 334.198 294.655, 334.142 295.542, 334.918 296.318 C 336.204 297.604, 336.334 299, 335.169 299 C 334.712 299, 333.736 297.875, 333 296.500 C 331.130 293.006, 330.111 293.385, 330.321 297.496 C 330.419 299.418, 330.733 300.993, 331.018 300.996 C 331.303 300.998, 331.528 307.300, 331.518 315 C 331.508 322.700, 331.893 329, 332.372 329 C 332.852 329, 332.719 329.634, 332.076 330.408 C 331.434 331.182, 330.902 333.545, 330.895 335.658 C 330.867 343.647, 330.198 360.772, 329.642 367.711 C 329.268 372.376, 329.444 375.156, 330.139 375.586 C 330.862 376.033, 330.770 376.526, 329.857 377.094 C 328.726 377.798, 328.721 378.295, 329.824 380.074 C 330.552 381.248, 330.712 381.940, 330.179 381.610 C 328.670 380.678, 327.902 383.759, 327.279 393.250 C 326.963 398.063, 326.321 402, 325.852 402 C 324.420 402, 324.905 410.048, 326.429 411.571 C 327.214 412.357, 328.104 413, 328.406 413 C 329.848 413, 332.244 407.559, 332.687 403.279 C 332.959 400.650, 333.510 398.050, 333.911 397.500 C 335.685 395.066, 337.197 387.891, 336.780 383.879 C 336.529 381.471, 336.686 378.498, 337.129 377.273 C 338.145 374.458, 339.331 357.551, 339.427 344.500 C 339.482 337.003, 339.187 334.563, 338.250 334.750 C 337.440 334.912, 337 333.767, 337 331.500 C 337 329.089, 337.457 328, 338.469 328 C 339.398 328, 339.714 327.418, 339.329 326.416 C 338.840 325.141, 338.557 325.092, 337.876 326.166 C 337.351 326.995, 337.025 325.564, 337.015 322.390 C 337.007 319.579, 336.789 315.079, 336.531 312.390 C 336.273 309.700, 336.300 308.400, 336.590 309.500 C 337.819 314.163, 338.331 314.371, 339.049 310.500 C 339.492 308.112, 339.380 305.995, 338.771 305.248 C 338.210 304.559, 338.017 302.664, 338.343 301.036 C 338.668 299.409, 338.560 297.846, 338.101 297.563 C 337.643 297.279, 337.475 295.965, 337.728 294.641 C 338.334 291.474, 336.741 290.584, 335.118 293.183 M 98.505 295.992 C 98.168 296.538, 98.352 297.775, 98.915 298.742 C 99.794 300.250, 99.944 300.109, 99.970 297.750 C 100.001 294.874, 99.539 294.319, 98.505 295.992 M 230.465 295.952 C 225.394 298.007, 224.739 302.792, 229.785 300.913 C 238.084 297.823, 239.416 296.757, 236.418 295.607 C 234.411 294.837, 233.016 294.918, 230.465 295.952 M 319 300.774 C 319 301.934, 319.373 303.113, 319.829 303.395 C 320.812 304.002, 320.684 300.350, 319.687 299.354 C 319.309 298.976, 319 299.615, 319 300.774 M 334.619 301.524 C 332.894 303.249, 332.376 305.504, 333.924 304.547 C 334.433 304.233, 335.092 304.769, 335.388 305.738 C 335.685 306.707, 335.785 306.278, 335.609 304.785 C 335.434 303.292, 335.788 301.891, 336.395 301.672 C 337.003 301.453, 337.216 300.966, 336.869 300.589 C 336.522 300.213, 335.510 300.633, 334.619 301.524 M 132.617 307.250 C 131.650 312.434, 133.274 318.380, 134.567 314.393 C 134.905 313.352, 135.636 311.544, 136.193 310.375 C 136.895 308.899, 136.857 307.601, 136.067 306.125 C 134.456 303.115, 133.318 303.486, 132.617 307.250 M 83.749 311.419 C 81.878 317.038, 81.350 321.769, 82.902 319 C 83.956 317.120, 86.353 307.020, 85.862 306.528 C 85.662 306.329, 84.711 308.529, 83.749 311.419 M 89.015 308.250 C 89.028 310.069, 89.216 310.213, 90 309 C 91.253 307.061, 91.253 306, 90 306 C 89.450 306, 89.007 307.012, 89.015 308.250 M 274.821 307.264 C 266.610 315.119, 256.587 322.334, 248.703 326.064 C 243.332 328.605, 241.341 328.999, 233.855 328.999 C 227.891 329, 223.085 328.346, 218.355 326.890 C 208.846 323.963, 190.263 315.360, 185.750 311.795 C 183.688 310.165, 181.973 308.982, 181.941 309.166 C 181.909 309.350, 181.750 311.075, 181.588 313 C 180.599 324.769, 177.799 352.654, 176.968 359 C 175.382 371.124, 175.166 370.559, 182.298 372.933 C 192.472 376.318, 202.518 377.013, 221.500 375.644 C 224.250 375.446, 227.175 375.035, 228 374.730 C 228.825 374.425, 234 372.979, 239.500 371.517 C 245 370.054, 252.388 367.990, 255.918 366.929 C 259.449 365.868, 263.106 365, 264.046 365 C 266.929 365, 267.701 362.971, 269.942 349.500 C 271.131 342.350, 272.726 333.575, 273.486 330 C 274.247 326.425, 275.137 321.475, 275.465 319 C 275.793 316.525, 276.324 312.587, 276.644 310.250 C 277.262 305.746, 276.947 305.230, 274.821 307.264 M 94.980 312.028 C 92.912 314.932, 92.866 315.294, 94.371 316.800 C 95.876 318.305, 96.012 318.279, 96.152 316.464 C 96.419 313.031, 96.535 312.528, 97.377 311.183 C 99.155 308.341, 97.086 309.070, 94.980 312.028 M 317.803 312.561 C 317.574 314.519, 317.750 316.346, 318.194 316.620 C 318.637 316.894, 319.051 316.529, 319.114 315.809 C 319.177 315.089, 319.375 313.262, 319.554 311.750 C 319.733 310.238, 319.506 309, 319.049 309 C 318.593 309, 318.032 310.602, 317.803 312.561 M 114.473 315.916 C 114.808 316.970, 114.581 318.141, 113.970 318.518 C 113.266 318.954, 113.102 320.646, 113.523 323.137 C 113.889 325.300, 113.774 327.616, 113.268 328.285 C 112.762 328.953, 112.292 333.688, 112.223 338.806 C 112.155 343.924, 111.822 348.987, 111.482 350.056 C 111.143 351.125, 111.270 352, 111.764 352 C 113.373 352, 114.969 347.591, 114.840 343.500 C 114.771 341.300, 115.044 333.762, 115.448 326.750 C 115.989 317.334, 115.878 314, 115.023 314 C 114.337 314, 114.113 314.781, 114.473 315.916 M 94 320.500 C 93.282 321.365, 93.185 322, 93.771 322 C 94.329 322, 95.045 321.325, 95.362 320.500 C 95.678 319.675, 95.781 319, 95.591 319 C 95.401 319, 94.685 319.675, 94 320.500 M 191.561 328.130 C 192.562 335, 192.565 334.860, 191.118 345.500 C 190.445 350.450, 188.965 356.439, 187.829 358.810 L 185.764 363.120 188.056 365.560 C 189.317 366.902, 190.648 368, 191.014 368 C 192.054 368, 193.643 363.953, 195.023 357.788 L 196.287 352.142 198.780 353.775 C 200.601 354.968, 203.597 355.408, 209.887 355.406 C 221.692 355.403, 229 354.813, 229 353.865 C 229 351.942, 224.405 350.996, 214.816 350.944 C 209.142 350.913, 202.925 350.350, 201 349.694 L 197.500 348.500 196.970 339 C 196.442 329.548, 194.764 324.060, 192.140 323.204 C 191.043 322.846, 190.931 323.802, 191.561 328.130 M 79.384 326.442 C 78.560 328.590, 79.314 331.272, 80.889 331.797 C 81.859 332.120, 82.019 331.843, 81.420 330.880 C 80.948 330.121, 80.693 328.488, 80.852 327.250 C 81.177 324.736, 80.237 324.218, 79.384 326.442 M 56.872 330.750 C 56.310 334.056, 56.408 336, 57.137 336 C 58.049 336, 58.118 335.809, 58.491 332.250 C 58.700 330.256, 57.194 328.860, 56.872 330.750 M 79.666 333.750 C 77.580 337.212, 74.042 356.629, 74.018 364.750 C 73.998 371.514, 75.377 372.959, 76.881 367.750 C 77.397 365.962, 77.860 365.063, 77.910 365.750 C 77.959 366.438, 78.422 367, 78.939 367 C 80.472 367, 81.300 358.374, 80.159 354.287 C 79.146 350.654, 79.111 350.751, 79.301 356.657 C 79.411 360.044, 79.197 362.626, 78.827 362.396 C 77.355 361.480, 76.934 355.873, 77.922 350.338 C 78.495 347.127, 79.224 342.700, 79.540 340.500 C 79.857 338.300, 80.346 335.712, 80.626 334.750 C 81.136 332.995, 80.513 332.345, 79.666 333.750 M 365.237 345.958 C 365.568 352.621, 366.910 356.951, 367.083 351.917 C 367.129 350.587, 367.304 348.375, 367.471 347 C 367.889 343.564, 366.948 339, 365.821 339 C 365.304 339, 365.045 342.091, 365.237 345.958 M 68.656 343.206 C 67.844 346.313, 68.464 346.473, 69.816 343.504 C 70.444 342.127, 70.569 341, 70.095 341 C 69.621 341, 68.974 341.993, 68.656 343.206 M 82 342.500 C 82 343.325, 82.450 344, 83 344 C 83.550 344, 84 343.325, 84 342.500 C 84 341.675, 83.550 341, 83 341 C 82.450 341, 82 341.675, 82 342.500 M 183.500 344 C 183.840 344.550, 185.018 345, 186.118 345 C 187.218 345, 187.840 344.550, 187.500 344 C 187.160 343.450, 185.982 343, 184.882 343 C 183.782 343, 183.160 343.450, 183.500 344 M 286.459 344.067 C 286.096 344.653, 286.014 345.348, 286.276 345.610 C 286.538 345.872, 287.019 345.392, 287.345 344.543 C 288.021 342.781, 287.445 342.471, 286.459 344.067 M 127.303 347.684 C 127.451 349.795, 127.090 350.433, 125.864 350.232 C 123.581 349.859, 122.825 352.294, 122.444 361.253 C 122.263 365.517, 121.844 369.444, 121.512 369.980 C 121.181 370.517, 121.613 373.325, 122.473 376.222 C 123.470 379.580, 123.668 381.611, 123.019 381.827 C 121.653 382.282, 121.718 385.708, 123.108 386.567 C 123.787 386.986, 123.982 388.712, 123.611 391.029 C 123.049 394.546, 123.214 394.879, 126.004 395.851 C 127.652 396.426, 129 397.369, 129 397.948 C 129 398.527, 129.646 399, 130.435 399 C 131.225 399, 132.440 400.575, 133.136 402.500 C 133.832 404.425, 134.696 406, 135.056 406 C 135.791 406, 135.535 397.705, 134.759 396.364 C 134.484 395.889, 133.953 392.125, 133.579 388 C 132.745 378.794, 132.245 377, 130.511 377 C 129.484 377, 129.194 375.268, 129.310 369.827 C 129.412 365.098, 129.063 362.521, 128.288 362.263 C 127.641 362.047, 127.273 361.337, 127.470 360.685 C 128.575 357.017, 128.866 352.965, 127.985 353.509 C 127.443 353.844, 127 353.641, 127 353.059 C 127 352.477, 127.354 352, 127.787 352 C 128.220 352, 128.634 351.208, 128.707 350.241 C 128.780 349.273, 128.988 347.867, 129.170 347.116 C 129.351 346.365, 128.961 345.552, 128.303 345.309 C 127.527 345.024, 127.175 345.859, 127.303 347.684 M 241.129 349.564 C 238.384 353.053, 238.420 356.480, 241.223 358.443 C 245.432 361.391, 246.338 360.564, 245.697 354.358 C 244.960 347.217, 243.873 346.075, 241.129 349.564 M 379.824 347.535 C 378.533 349.511, 377.620 361.353, 378.815 360.614 C 379.424 360.238, 380.200 358.453, 380.538 356.648 C 381.284 352.674, 380.768 346.090, 379.824 347.535 M 95.543 350.931 C 95.226 351.443, 95.425 352.144, 95.984 352.490 C 96.543 352.835, 97 352.416, 97 351.559 C 97 349.802, 96.400 349.544, 95.543 350.931 M 124.500 353 C 124.840 353.550, 125.316 354, 125.559 354 C 125.802 354, 126 353.550, 126 353 C 126 352.450, 125.523 352, 124.941 352 C 124.359 352, 124.160 352.450, 124.500 353 M 112.079 354.583 C 112.127 355.748, 112.364 355.985, 112.683 355.188 C 112.972 354.466, 112.936 353.603, 112.604 353.271 C 112.272 352.939, 112.036 353.529, 112.079 354.583 M 352.015 359.750 C 352.007 360.988, 352.450 362, 353 362 C 354.253 362, 354.253 360.939, 353 359 C 352.216 357.787, 352.028 357.931, 352.015 359.750 M 202 363 C 202 363.550, 203.377 364, 205.059 364 C 206.844 364, 207.861 363.583, 207.500 363 C 207.160 362.450, 205.784 362, 204.441 362 C 203.098 362, 202 362.450, 202 363 M 88.393 369.582 C 88.727 370.452, 89 371.603, 89 372.141 C 89 372.678, 89.450 372.840, 90 372.500 C 91.630 371.493, 91.159 368, 89.393 368 C 88.338 368, 87.995 368.544, 88.393 369.582 M 103.079 370.583 C 103.127 371.748, 103.364 371.985, 103.683 371.188 C 103.972 370.466, 103.936 369.603, 103.604 369.271 C 103.272 368.939, 103.036 369.529, 103.079 370.583 M 109 370.941 C 109 372.009, 109.450 373.160, 110 373.500 C 110.567 373.851, 111 373.010, 111 371.559 C 111 370.152, 110.550 369, 110 369 C 109.450 369, 109 369.873, 109 370.941 M 124.033 370.342 C 124.015 370.806, 124.900 372.329, 126 373.727 C 127.100 375.126, 128 375.809, 128 375.246 C 128 373.999, 124.080 369.153, 124.033 370.342 M 335.079 372.583 C 335.127 373.748, 335.364 373.985, 335.683 373.188 C 335.972 372.466, 335.936 371.603, 335.604 371.271 C 335.272 370.939, 335.036 371.529, 335.079 372.583 M 130 374 C 130 375.100, 130.450 376, 131 376 C 131.550 376, 132 375.100, 132 374 C 132 372.900, 131.550 372, 131 372 C 130.450 372, 130 372.900, 130 374 M 263.750 372.800 C 262.788 372.991, 262 373.512, 262 373.958 C 262 375.417, 256.606 378.349, 251.500 379.666 C 248.750 380.376, 241.591 382.298, 235.591 383.938 C 229.590 385.579, 224.303 386.687, 223.841 386.401 C 223.378 386.116, 223 386.268, 223 386.740 C 223 387.831, 218.935 388.089, 201.216 388.124 C 189.770 388.146, 185.697 387.763, 180.716 386.196 C 169.938 382.806, 169 382.703, 169 384.914 C 169 386.900, 169.800 387.314, 176 388.546 C 177.925 388.928, 180.669 389.838, 182.098 390.567 C 185.956 392.538, 209.513 397.003, 215.927 396.980 C 225.945 396.944, 233.806 395.235, 242.740 391.150 C 247.558 388.948, 253.637 386.837, 256.250 386.459 C 259.995 385.918, 261 385.374, 261 383.886 C 261 382.849, 260.550 382, 260 382 C 259.450 382, 259 381.373, 259 380.607 C 259 378.906, 261.706 377.715, 262.532 379.051 C 263.525 380.659, 266.160 377.195, 265.817 374.731 C 265.601 373.176, 264.945 372.563, 263.750 372.800 M 87.333 376.544 C 87.333 377.345, 87.708 378, 88.167 378 C 88.625 378, 89 377.577, 89 377.059 C 89 376.541, 88.625 375.886, 88.167 375.603 C 87.708 375.320, 87.333 375.743, 87.333 376.544 M 295.688 376.370 C 294.715 378.907, 294.834 383.779, 295.886 384.429 C 297.117 385.190, 297.913 380.320, 297.071 377.174 C 296.479 374.959, 296.275 374.841, 295.688 376.370 M 71.250 378.137 C 70.563 378.832, 70 380.836, 70 382.591 C 70 385.492, 70.317 385.818, 73.500 386.190 C 77.434 386.649, 77.919 386.055, 75.066 384.273 C 73.994 383.604, 72.991 381.685, 72.816 379.970 C 72.562 377.486, 72.253 377.124, 71.250 378.137 M 96.932 377.691 C 96.894 378.136, 96.690 380.413, 96.478 382.750 C 96.149 386.390, 96.365 387, 97.988 387 C 100.726 387, 101.298 385.433, 99.998 381.494 C 98.915 378.214, 97.080 375.937, 96.932 377.691 M 378.813 385.683 C 379.534 385.972, 380.397 385.936, 380.729 385.604 C 381.061 385.272, 380.471 385.036, 379.417 385.079 C 378.252 385.127, 378.015 385.364, 378.813 385.683 M 60.694 386.639 C 59.895 387.438, 60.798 389, 62.059 389 C 62.577 389, 63 388.325, 63 387.500 C 63 385.954, 61.820 385.513, 60.694 386.639 M 382 386.810 C 382 387.347, 382.713 388.059, 383.584 388.394 C 384.557 388.767, 385.015 388.544, 384.771 387.813 C 384.273 386.318, 382 385.495, 382 386.810 M 378.510 389.016 C 378.856 389.575, 379.557 389.774, 380.069 389.457 C 381.456 388.600, 381.198 388, 379.441 388 C 378.584 388, 378.165 388.457, 378.510 389.016 M 155.531 391.293 C 155.103 392.279, 155.034 393.367, 155.376 393.710 C 156.392 394.725, 157.211 393.299, 156.743 391.328 C 156.329 389.581, 156.275 389.580, 155.531 391.293 M 330.079 392.583 C 330.127 393.748, 330.364 393.985, 330.683 393.188 C 330.972 392.466, 330.936 391.603, 330.604 391.271 C 330.272 390.939, 330.036 391.529, 330.079 392.583 M 292.661 395.823 C 290.636 398.059, 290.511 400, 292.392 400 C 293.157 400, 294.079 398.822, 294.440 397.382 C 295.286 394.011, 294.736 393.529, 292.661 395.823 M 154.912 397.500 C 154.847 398.600, 154.649 401.889, 154.470 404.809 C 154.292 407.729, 153.634 410.735, 153.009 411.490 C 152.124 412.555, 152.316 413.099, 153.870 413.930 C 154.969 414.519, 156.236 414.999, 156.684 414.998 C 157.736 414.996, 157.732 402.897, 156.680 401.250 C 156.241 400.563, 156.104 399.641, 156.375 399.202 C 156.646 398.763, 156.455 397.751, 155.949 396.952 C 155.207 395.780, 155.008 395.885, 154.912 397.500 M 277.667 400.667 C 276.475 401.859, 276.964 406, 278.296 406 C 279.014 406, 279.572 404.920, 279.546 403.583 C 279.495 400.901, 278.686 399.647, 277.667 400.667 M 275.584 408.641 C 275.057 410.014, 275.204 410.076, 276.477 409.019 C 278.212 407.579, 278.393 407, 277.107 407 C 276.616 407, 275.931 407.739, 275.584 408.641 M 137 410.500 C 137 413.293, 138.459 413.853, 139.393 411.418 C 140.353 408.916, 140.114 408, 138.500 408 C 137.567 408, 137 408.944, 137 410.500 M 399.564 409.293 C 399.940 410.279, 400.499 410.834, 400.807 410.526 C 401.115 410.219, 400.808 409.412, 400.124 408.733 C 399.136 407.753, 399.022 407.868, 399.564 409.293 M 323 415.531 C 323 416.339, 323.675 417, 324.500 417 C 325.325 417, 326 416.598, 326 416.107 C 326 415.616, 325.325 414.955, 324.500 414.638 C 323.586 414.288, 323 414.637, 323 415.531 M 320.345 420.543 C 320.019 421.392, 320.034 422.368, 320.378 422.711 C 321.264 423.597, 326.042 420.878, 325.407 419.849 C 324.523 418.419, 320.973 418.906, 320.345 420.543 M 177.500 487 C 177.160 487.550, 177.584 488, 178.441 488 C 179.298 488, 180 487.550, 180 487 C 180 486.450, 179.577 486, 179.059 486 C 178.541 486, 177.840 486.450, 177.500 487" stroke="none" fill="black" fill-rule="evenodd"/>
</svg>